<svg id="calculator_" xmlns="http://www.w3.org/2000/svg" viewBox="0 0 133.96 133.96"><defs><style>.cls-1{fill:#fcc16c;}.cls-2{fill:#231f20;}</style></defs><g id="calculator"><circle id="background" class="cls-1" cx="66.98" cy="66.98" r="66.98"/><path id="calculator_icon" class="cls-2" d="M91.37,24.91H43.62a5.75,5.75,0,0,0-5.74,5.75v70.59A5.74,5.74,0,0,0,43.62,107H91.37a5.74,5.74,0,0,0,5.74-5.74V30.66A5.75,5.75,0,0,0,91.37,24.91ZM56.56,99.78H45.84v-5H56.56Zm0-8.2H45.84v-5H56.56Zm0-8.2H45.84v-5H56.56Zm0-8.2H45.84v-5H56.56Zm0-8.2H45.84v-5H56.56ZM73,99.78H62.31v-5H73Zm0-8.2H62.31v-5H73Zm0-8.2H62.31v-5H73Zm0-8.2H62.31v-5H73ZM73,67H62.31v-5H73ZM89.5,99.78H78.77v-5H89.5Zm0-8.2H78.77v-5H89.5Zm0-8.2H78.77v-5H89.5Zm0-8.2H78.77v-5H89.5Zm0-8.2H78.77v-5H89.5Zm0-9.9H45.84V33.34H89.5Z"/></g></svg>