<svg id="camera_" xmlns="http://www.w3.org/2000/svg" viewBox="0 0 133.96 133.96"><defs><style>.cls-1{fill:#fbc06b;}.cls-2{fill:none;}.cls-2,.cls-3{stroke:#221f1f;stroke-miterlimit:10;}.cls-3{fill:#221f1f;}</style></defs><g id="camera"><circle id="background" class="cls-1" cx="66.98" cy="66.98" r="66.98"/><g id="camera_icon"><line id="line3" class="cls-2" x1="91.57" y1="34.4" x2="91.57" y2="27.8"/><line id="line2" class="cls-2" x1="89.99" y1="35.42" x2="87.4" y2="29.35"/><line id="line1" class="cls-2" x1="93.38" y1="35.43" x2="95.92" y2="29.34"/><circle id="centre_circle" class="cls-3" cx="66.98" cy="67.11" r="10.21"/><path id="camera_merged" class="cls-3" d="M98.78,43.78h-.41V38.34H84.76v5.44H35.18a7.29,7.29,0,0,0-7.29,7.29V83.15a7.3,7.3,0,0,0,7.29,7.3h63.6a7.29,7.29,0,0,0,7.29-7.3V51.07A7.29,7.29,0,0,0,98.78,43.78ZM67,81.55A14.44,14.44,0,1,1,81.42,67.11,14.44,14.44,0,0,1,67,81.55Z"/></g></g></svg>