<svg id="game_" xmlns="http://www.w3.org/2000/svg" viewBox="0 0 133.96 133.96"><defs><style>.cls-1{fill:#fcc16c;}.cls-2{fill:#231f20;}</style></defs><g id="game"><circle id="background" class="cls-1" cx="66.98" cy="66.98" r="66.98"/><path id="game_icon" class="cls-2" d="M98.25,44.16a22.81,22.81,0,0,0-5.06.57H40.77A22.82,22.82,0,1,0,58.4,69.42H75.56A22.82,22.82,0,1,0,98.25,44.16Zm-51,27h-8v8H30.81v-8h-8V62.81h8V54.76h8.35v8.05h8ZM86,71.88a4.83,4.83,0,1,1,4.83-4.83A4.84,4.84,0,0,1,86,71.88ZM98.34,84a4.83,4.83,0,1,1,4.83-4.83A4.83,4.83,0,0,1,98.34,84Zm0-24.21A4.83,4.83,0,1,1,103.17,55,4.83,4.83,0,0,1,98.34,59.79Zm11.9,12.09a4.83,4.83,0,1,1,4.83-4.83A4.83,4.83,0,0,1,110.24,71.88Z"/></g></svg>