<svg id="headphons_" xmlns="http://www.w3.org/2000/svg" viewBox="0 0 133.96 133.96"><defs><style>.cls-1{fill:#fcc16c;}.cls-2{fill:#231f20;}</style></defs><g id="headphones"><circle id="background" class="cls-1" cx="66.98" cy="66.98" r="66.98"/><path id="headphones_icon" class="cls-2" d="M39.79,62.55C41.13,53.91,45,47.66,51.37,43.74c12.07-7,22.6-5.35,32.17,1.79A23.56,23.56,0,0,1,92.64,63H87.28c-2.15,0-3.77,1.76-3.91,4.51L83.79,97c.12,2.59,1.38,4,3.75,4.34,5.16,0,10-.25,12.59-2,4.37-2.49,7.34-6.47,8.77-12.08.6-5.48.32-10.24-1-14.13a19.29,19.29,0,0,0-7.83-8.26,33,33,0,0,0-2.13-16.17A34.51,34.51,0,0,0,86.85,33.45c-10.5-8.08-21.95-9.09-34.21-4.09A33.75,33.75,0,0,0,36.05,46.64a34,34,0,0,0-2.73,18,16.52,16.52,0,0,0-8.42,8.68c-1.12,3.38-1.36,7.91-1,13.19a16.74,16.74,0,0,0,4.34,9.28,17,17,0,0,0,11.23,5.53h6c2.27-.28,3.49-1.35,3.74-3.15L49.24,67c-.45-2.42-1.42-4-3.32-4.17Z"/></g></svg>