<svg id="telephone_" xmlns="http://www.w3.org/2000/svg" viewBox="0 0 133.96 133.96"><defs><style>.cls-1{fill:#fcc16c;}.cls-2{fill:#231f20;}</style></defs><g id="telephone"><circle id="background" class="cls-1" cx="66.98" cy="66.98" r="66.98"/><g id="telephone_icon"><path id="telephone3" class="cls-2" d="M36.34,30.32,52.56,52a6.73,6.73,0,0,0-.43,7.53,106.72,106.72,0,0,0,11.92,17,50.43,50.43,0,0,0,8,7.92c1.86,1.44,3.55,1.55,5.11.63L93,106.28c-5.38,2.69-11.8,2.19-19.4-1.92-9.83-4.46-19.17-14-28.21-26.55A82.06,82.06,0,0,1,32.77,52C30.93,40.38,32.83,34.17,36.34,30.32Z"/><path id="telephone2" class="cls-2" d="M44.84,23.58h8.08a1.84,1.84,0,0,1,1.84,1.84V49.07a1.84,1.84,0,0,1-1.84,1.84H44.84a0,0,0,0,1,0,0V23.58A0,0,0,0,1,44.84,23.58Z" transform="translate(-12.38 37.1) rotate(-36.66)"/><path id="telephone1" class="cls-2" d="M86,78.17H94A1.84,1.84,0,0,1,95.87,80v23.65A1.84,1.84,0,0,1,94,105.5H86a0,0,0,0,1,0,0V78.17a0,0,0,0,1,0,0Z" transform="translate(-36.85 72.45) rotate(-36.66)"/></g></g></svg>